<?xml version="1.0" encoding="utf-8"?>
<!-- Generator: Adobe Illustrator 19.1.0, SVG Export Plug-In . SVG Version: 6.00 Build 0)  -->
<svg version="1.1" id="Layer_1" xmlns="http://www.w3.org/2000/svg" xmlns:xlink="http://www.w3.org/1999/xlink" x="0px" y="0px"
	 viewBox="0 0 290.8 209.8" style="enable-background:new 0 0 290.8 209.8;" xml:space="preserve">
<style type="text/css">
	.st0{fill:#DB833A;}
</style>
<path class="st0" d="M102.7,144c2,9.1,2.1,21.5-3.4,29.5c-6.4,9.3-15.7,8.8-25.4,6.4c-0.4-0.1-0.7,0-0.9,0.3
	c-4.2,5.6-12,6.7-17.4,2.8c-0.2,0.1-0.3,0.1-0.5,0.2c-18.4,4.7-34-10-34.7-28.2c0-0.4,0-0.9,0-1.3c0.1-17,13.4-34.9,31.9-27.8
	c0.6,0.2,1,0.5,1.3,0.8c0.4,0.1,0.7,0.1,1.2,0.1c3.3-2.2,5.9-9-0.4-11c-3.7-0.9-3-2.6-1.9-2.7c1-0.1,1.3-2.2,1-3.2
	c-0.2-1,14.5,3.3,14,15.9c0,0.8,0.9,1.2,1.5,0.7c4.8-3.9,11.5-4.2,18-2.1C96.3,127.4,100.7,134.8,102.7,144z M127,97.7
	c-5.5-12.5-19.6-17.6-32.6-17.4c-6.6,0.1-12.8,1.6-17.5,4.1c-3.7,2.8-5.9,7.3-5.8,11.9c2.1,17.5,28.1,30.8,52.4,19.7
	C129.3,112.2,131.1,103.7,127,97.7z M245.7,127.4c-0.7,0.2-1.3,0.5-1.7,1c0,0,0,0,0,0c-2.4-2.2-3.4-10.3,2.3-11.1
	c3.1-0.2,2.9-2,2.1-2.3c-0.8-0.3-0.5-2.4-0.1-3.3c0.4-0.9-11.8,0.7-14.3,12.7c-0.2,0.8-1.2,1-1.6,0.3c-2.9-4.3-7.9-5.6-13.2-4.8
	c-7.9,1.2-12.9,7.7-16.5,16.3c-3.6,8.5-6.4,20.5-3.9,29.4c2.9,10.4,10.5,11.4,18.7,10.6c1.9,6.6,7.8,9.3,13,6.4
	c0.1,0.1,0.2,0.2,0.3,0.3c13.2,7.8,28.5-3.8,33-21.4c0.9-3.6,1.4-7.3,1.3-11C265.1,136.8,258.5,124.5,245.7,127.4z M242.5,91.3
	c0.3-3.8-1.6-7.2-5-9.2c-3.3-1.2-7.5-1.9-12-1.9c-13.6,0-30.6,5.5-37.2,17.7c-4.2,5.4-2.9,12.2,2.5,14.7
	C213.7,119.5,239.6,106,242.5,91.3z M153.9,138.3c-0.6,0.3-1,0.7-1.3,1.2c0,0,0,0,0,0c-2.9-1-6.4-6.7-1.2-8.8c2.9-1,2.1-2.2,1.3-2.3
	c-0.8,0-1.2-1.6-1.1-2.4c0.1-0.8-10.9,3.7-9.8,13.1c0.1,0.7-0.7,1.3-1.3,0.9c-4.1-2.4-9.2-2.1-14.1,0c-7.2,3-10,9.1-10.9,16.4
	c-0.9,7.2,0,16.8,5,22.6c5.9,6.9,13.4,5.5,21,2.7c3.7,4.3,10.2,4.7,14.3,1.1c0.1,0,0.2,0.1,0.4,0.1c14.9,2.1,26-10.5,25.1-24.7
	C180.4,144.8,168.3,131.1,153.9,138.3z M168.7,121.8c5.7-0.4,10.2-5.6,9.8-11c-3.7-17-18.5-26.7-30.3-25.4c-2.4,0.3-4.7,1-6.7,2.2
	c-2.9,2.2-4.7,5.7-4.7,9.3C138.6,109.3,153.1,125.7,168.7,121.8z"/>
</svg>
